# MagicaVoxel @ Ephtracy

# group
o 

# material
mtllib Glider.mtl
usemtl palette

# normals
vn -1 0 0
vn 1 0 0
vn 0 0 1
vn 0 0 -1
vn 0 -1 0
vn 0 1 0

# texcoords
vt 0.849609 0.5
vt 0.958984 0.5
vt 0.994141 0.5

# verts
v -1 1.6 -1
v -1 1.6 -1.1
v -1 1.7 -1
v -1 1.7 -1.1
v -0.9 1.6 -0.7
v -0.9 1.6 -1
v -0.9 1.7 -0.7
v -0.9 1.7 -1
v -0.8 1.6 -0.5
v -0.8 1.6 -0.7
v -0.8 1.7 -0.5
v -0.8 1.7 -0.7
v -0.7 1.6 -0.2
v -0.7 1.6 -0.5
v -0.7 1.7 -0.2
v -0.7 1.7 -0.5
v -0.6 1.5 0.1
v -0.6 1.5 0
v -0.6 1.6 0.1
v -0.6 1.6 0
v -0.6 1.6 -0.2
v -0.6 1.7 0.1
v -0.6 1.7 -0.2
v -0.5 1.4 0.1
v -0.5 1.4 0
v -0.5 1.5 0.1
v -0.5 1.5 0
v -0.5 1.6 0.4
v -0.5 1.6 0.1
v -0.5 1.7 0.4
v -0.5 1.7 0.1
v -0.4 1.3 0.1
v -0.4 1.3 0
v -0.4 1.4 0.1
v -0.4 1.4 0
v -0.4 1.6 0.5
v -0.4 1.6 0.4
v -0.4 1.7 0.5
v -0.4 1.7 0.4
v -0.3 1.2 0.1
v -0.3 1.2 0
v -0.3 1.3 0.1
v -0.3 1.3 0
v -0.3 1.6 0.7
v -0.3 1.6 0.5
v -0.3 1.7 0.7
v -0.3 1.7 0.5
v -0.2 1.6 0.9
v -0.2 1.6 0.7
v -0.2 1.7 0.9
v -0.2 1.7 0.7
v -0.1 1.6 1
v -0.1 1.6 0.9
v -0.1 1.7 1
v -0.1 1.7 0.9
v 0.2 1.2 0.1
v 0.2 1.2 0
v 0.2 1.3 0.1
v 0.2 1.3 0
v 0.3 1.3 0.1
v 0.3 1.3 0
v 0.3 1.4 0.1
v 0.3 1.4 0
v 0.4 1.4 0.1
v 0.4 1.4 0
v 0.4 1.5 0.1
v 0.4 1.5 0
v 0.5 1.5 0.1
v 0.5 1.5 0
v 0.5 1.6 0.1
v 0.5 1.6 0
v -0.5 1.5 0.1
v -0.5 1.5 0
v -0.5 1.6 0.1
v -0.5 1.6 0
v -0.4 1.4 0.1
v -0.4 1.4 0
v -0.4 1.5 0.1
v -0.4 1.5 0
v -0.3 1.3 0.1
v -0.3 1.3 0
v -0.3 1.4 0.1
v -0.3 1.4 0
v -0.2 1.2 0.1
v -0.2 1.2 0
v -0.2 1.3 0.1
v -0.2 1.3 0
v 0.1 1.6 1
v 0.1 1.6 0.9
v 0.1 1.7 1
v 0.1 1.7 0.9
v 0.2 1.6 0.9
v 0.2 1.6 0.7
v 0.2 1.7 0.9
v 0.2 1.7 0.7
v 0.3 1.2 0.1
v 0.3 1.2 0
v 0.3 1.3 0.1
v 0.3 1.3 0
v 0.3 1.6 0.7
v 0.3 1.6 0.5
v 0.3 1.7 0.7
v 0.3 1.7 0.5
v 0.4 1.3 0.1
v 0.4 1.3 0
v 0.4 1.4 0.1
v 0.4 1.4 0
v 0.4 1.6 0.5
v 0.4 1.6 0.4
v 0.4 1.7 0.5
v 0.4 1.7 0.4
v 0.5 1.4 0.1
v 0.5 1.4 0
v 0.5 1.5 0.1
v 0.5 1.5 0
v 0.5 1.6 0.4
v 0.5 1.6 0.1
v 0.5 1.7 0.4
v 0.5 1.7 0.1
v 0.6 1.5 0.1
v 0.6 1.5 0
v 0.6 1.6 0.1
v 0.6 1.6 0
v 0.6 1.6 -0.2
v 0.6 1.7 0.1
v 0.6 1.7 -0.2
v 0.7 1.6 -0.2
v 0.7 1.6 -0.5
v 0.7 1.7 -0.2
v 0.7 1.7 -0.5
v 0.8 1.6 -0.5
v 0.8 1.6 -0.7
v 0.8 1.7 -0.5
v 0.8 1.7 -0.7
v 0.9 1.6 -0.7
v 0.9 1.6 -1
v 0.9 1.7 -0.7
v 0.9 1.7 -1
v 1 1.6 -1
v 1 1.6 -1.1
v 1 1.7 -1
v 1 1.7 -1.1
v -0.1 1.6 1
v -0.1 1.7 1
v 0.1 1.6 1
v 0.1 1.7 1
v -0.2 1.6 0.9
v -0.2 1.7 0.9
v -0.1 1.6 0.9
v -0.1 1.7 0.9
v 0.1 1.6 0.9
v 0.1 1.7 0.9
v 0.2 1.6 0.9
v 0.2 1.7 0.9
v -0.3 1.6 0.7
v -0.3 1.7 0.7
v -0.2 1.6 0.7
v -0.2 1.7 0.7
v 0.2 1.6 0.7
v 0.2 1.7 0.7
v 0.3 1.6 0.7
v 0.3 1.7 0.7
v -0.4 1.6 0.5
v -0.4 1.7 0.5
v -0.3 1.6 0.5
v -0.3 1.7 0.5
v 0.3 1.6 0.5
v 0.3 1.7 0.5
v 0.4 1.6 0.5
v 0.4 1.7 0.5
v -0.5 1.6 0.4
v -0.5 1.7 0.4
v -0.4 1.6 0.4
v -0.4 1.7 0.4
v 0.4 1.6 0.4
v 0.4 1.7 0.4
v 0.5 1.6 0.4
v 0.5 1.7 0.4
v -0.6 1.5 0.1
v -0.6 1.6 0.1
v -0.6 1.7 0.1
v -0.5 1.4 0.1
v -0.5 1.5 0.1
v -0.5 1.6 0.1
v -0.5 1.7 0.1
v -0.4 1.3 0.1
v -0.4 1.4 0.1
v -0.4 1.5 0.1
v -0.3 1.2 0.1
v -0.3 1.3 0.1
v -0.3 1.4 0.1
v -0.2 1.2 0.1
v -0.2 1.3 0.1
v 0.2 1.2 0.1
v 0.2 1.3 0.1
v 0.3 1.2 0.1
v 0.3 1.3 0.1
v 0.3 1.4 0.1
v 0.4 1.3 0.1
v 0.4 1.4 0.1
v 0.4 1.5 0.1
v 0.5 1.4 0.1
v 0.5 1.5 0.1
v 0.5 1.6 0.1
v 0.5 1.7 0.1
v 0.6 1.5 0.1
v 0.6 1.6 0.1
v 0.6 1.7 0.1
v -0.7 1.6 -0.2
v -0.7 1.7 -0.2
v -0.6 1.6 -0.2
v -0.6 1.7 -0.2
v 0.6 1.6 -0.2
v 0.6 1.7 -0.2
v 0.7 1.6 -0.2
v 0.7 1.7 -0.2
v -0.8 1.6 -0.5
v -0.8 1.7 -0.5
v -0.7 1.6 -0.5
v -0.7 1.7 -0.5
v 0.7 1.6 -0.5
v 0.7 1.7 -0.5
v 0.8 1.6 -0.5
v 0.8 1.7 -0.5
v -0.9 1.6 -0.7
v -0.9 1.7 -0.7
v -0.8 1.6 -0.7
v -0.8 1.7 -0.7
v 0.8 1.6 -0.7
v 0.8 1.7 -0.7
v 0.9 1.6 -0.7
v 0.9 1.7 -0.7
v -1 1.6 -1
v -1 1.7 -1
v -0.9 1.6 -1
v -0.9 1.7 -1
v 0.9 1.6 -1
v 0.9 1.7 -1
v 1 1.6 -1
v 1 1.7 -1
v -0.6 1.5 0
v -0.6 1.6 0
v -0.5 1.4 0
v -0.5 1.5 0
v -0.5 1.6 0
v -0.4 1.3 0
v -0.4 1.4 0
v -0.4 1.5 0
v -0.3 1.2 0
v -0.3 1.3 0
v -0.3 1.4 0
v -0.2 1.2 0
v -0.2 1.3 0
v 0.2 1.2 0
v 0.2 1.3 0
v 0.3 1.2 0
v 0.3 1.3 0
v 0.3 1.4 0
v 0.4 1.3 0
v 0.4 1.4 0
v 0.4 1.5 0
v 0.5 1.4 0
v 0.5 1.5 0
v 0.5 1.6 0
v 0.6 1.5 0
v 0.6 1.6 0
v -1 1.6 -1.1
v -1 1.7 -1.1
v 1 1.6 -1.1
v 1 1.7 -1.1
v -0.3 1.2 0.1
v -0.2 1.2 0.1
v 0.2 1.2 0.1
v 0.3 1.2 0.1
v -0.3 1.2 0
v -0.2 1.2 0
v 0.2 1.2 0
v 0.3 1.2 0
v -0.4 1.3 0.1
v -0.3 1.3 0.1
v 0.3 1.3 0.1
v 0.4 1.3 0.1
v -0.4 1.3 0
v -0.3 1.3 0
v 0.3 1.3 0
v 0.4 1.3 0
v -0.5 1.4 0.1
v -0.4 1.4 0.1
v 0.4 1.4 0.1
v 0.5 1.4 0.1
v -0.5 1.4 0
v -0.4 1.4 0
v 0.4 1.4 0
v 0.5 1.4 0
v -0.6 1.5 0.1
v -0.5 1.5 0.1
v 0.5 1.5 0.1
v 0.6 1.5 0.1
v -0.6 1.5 0
v -0.5 1.5 0
v 0.5 1.5 0
v 0.6 1.5 0
v -0.1 1.6 1
v 0.1 1.6 1
v -0.2 1.6 0.9
v -0.1 1.6 0.9
v 0.1 1.6 0.9
v 0.2 1.6 0.9
v -0.1 1.6 0.8
v 0.1 1.6 0.8
v -0.3 1.6 0.7
v -0.2 1.6 0.7
v 0.2 1.6 0.7
v 0.3 1.6 0.7
v -0.2 1.6 0.6
v -0.1 1.6 0.6
v 0.1 1.6 0.6
v 0.2 1.6 0.6
v -0.4 1.6 0.5
v -0.3 1.6 0.5
v 0.3 1.6 0.5
v 0.4 1.6 0.5
v -0.5 1.6 0.4
v -0.4 1.6 0.4
v -0.3 1.6 0.4
v -0.2 1.6 0.4
v 0.2 1.6 0.4
v 0.3 1.6 0.4
v 0.4 1.6 0.4
v 0.5 1.6 0.4
v -0.4 1.6 0.3
v -0.3 1.6 0.3
v 0.3 1.6 0.3
v 0.4 1.6 0.3
v -0.5 1.6 0.1
v 0.5 1.6 0.1
v -0.6 1.6 0
v -0.5 1.6 0
v -0.4 1.6 0
v 0.4 1.6 0
v 0.5 1.6 0
v 0.6 1.6 0
v -0.7 1.6 -0.2
v -0.6 1.6 -0.2
v 0.6 1.6 -0.2
v 0.7 1.6 -0.2
v -0.6 1.6 -0.3
v -0.5 1.6 -0.3
v 0.5 1.6 -0.3
v 0.6 1.6 -0.3
v -0.8 1.6 -0.5
v -0.7 1.6 -0.5
v 0.7 1.6 -0.5
v 0.8 1.6 -0.5
v -0.7 1.6 -0.6
v -0.6 1.6 -0.6
v 0.6 1.6 -0.6
v 0.7 1.6 -0.6
v -0.9 1.6 -0.7
v -0.8 1.6 -0.7
v 0.8 1.6 -0.7
v 0.9 1.6 -0.7
v -0.8 1.6 -0.8
v -0.7 1.6 -0.8
v 0.7 1.6 -0.8
v 0.8 1.6 -0.8
v -1 1.6 -1
v -0.9 1.6 -1
v -0.8 1.6 -1
v 0.8 1.6 -1
v 0.9 1.6 -1
v 1 1.6 -1
v -1 1.6 -1.1
v 1 1.6 -1.1
v -0.3 1.3 0.1
v -0.2 1.3 0.1
v 0.2 1.3 0.1
v 0.3 1.3 0.1
v -0.3 1.3 0
v -0.2 1.3 0
v 0.2 1.3 0
v 0.3 1.3 0
v -0.4 1.4 0.1
v -0.3 1.4 0.1
v 0.3 1.4 0.1
v 0.4 1.4 0.1
v -0.4 1.4 0
v -0.3 1.4 0
v 0.3 1.4 0
v 0.4 1.4 0
v -0.5 1.5 0.1
v -0.4 1.5 0.1
v 0.4 1.5 0.1
v 0.5 1.5 0.1
v -0.5 1.5 0
v -0.4 1.5 0
v 0.4 1.5 0
v 0.5 1.5 0
v -0.1 1.7 1
v 0.1 1.7 1
v -0.2 1.7 0.9
v -0.1 1.7 0.9
v 0.1 1.7 0.9
v 0.2 1.7 0.9
v -0.1 1.7 0.8
v 0.1 1.7 0.8
v -0.3 1.7 0.7
v -0.2 1.7 0.7
v 0.2 1.7 0.7
v 0.3 1.7 0.7
v -0.2 1.7 0.6
v -0.1 1.7 0.6
v 0.1 1.7 0.6
v 0.2 1.7 0.6
v -0.4 1.7 0.5
v -0.3 1.7 0.5
v 0.3 1.7 0.5
v 0.4 1.7 0.5
v -0.5 1.7 0.4
v -0.4 1.7 0.4
v -0.3 1.7 0.4
v -0.2 1.7 0.4
v 0.2 1.7 0.4
v 0.3 1.7 0.4
v 0.4 1.7 0.4
v 0.5 1.7 0.4
v -0.4 1.7 0.3
v -0.3 1.7 0.3
v 0.3 1.7 0.3
v 0.4 1.7 0.3
v -0.6 1.7 0.1
v -0.5 1.7 0.1
v 0.5 1.7 0.1
v 0.6 1.7 0.1
v -0.5 1.7 0
v -0.4 1.7 0
v 0.4 1.7 0
v 0.5 1.7 0
v -0.7 1.7 -0.2
v -0.6 1.7 -0.2
v 0.6 1.7 -0.2
v 0.7 1.7 -0.2
v -0.6 1.7 -0.3
v -0.5 1.7 -0.3
v 0.5 1.7 -0.3
v 0.6 1.7 -0.3
v -0.8 1.7 -0.5
v -0.7 1.7 -0.5
v 0.7 1.7 -0.5
v 0.8 1.7 -0.5
v -0.7 1.7 -0.6
v -0.6 1.7 -0.6
v 0.6 1.7 -0.6
v 0.7 1.7 -0.6
v -0.9 1.7 -0.7
v -0.8 1.7 -0.7
v 0.8 1.7 -0.7
v 0.9 1.7 -0.7
v -0.8 1.7 -0.8
v -0.7 1.7 -0.8
v 0.7 1.7 -0.8
v 0.8 1.7 -0.8
v -1 1.7 -1
v -0.9 1.7 -1
v -0.8 1.7 -1
v 0.8 1.7 -1
v 0.9 1.7 -1
v 1 1.7 -1
v -1 1.7 -1.1
v 1 1.7 -1.1

# faces
f 3/1/1 2/1/1 1/1/1
f 4/1/1 2/1/1 3/1/1
f 7/1/1 6/1/1 5/1/1
f 8/1/1 6/1/1 7/1/1
f 11/1/1 10/1/1 9/1/1
f 12/1/1 10/1/1 11/1/1
f 15/1/1 14/1/1 13/1/1
f 16/1/1 14/1/1 15/1/1
f 19/3/1 18/3/1 17/3/1
f 20/3/1 18/3/1 19/3/1
f 22/1/1 20/1/1 19/1/1
f 22/1/1 21/1/1 20/1/1
f 23/1/1 21/1/1 22/1/1
f 26/3/1 25/3/1 24/3/1
f 27/3/1 25/3/1 26/3/1
f 30/1/1 29/1/1 28/1/1
f 31/1/1 29/1/1 30/1/1
f 34/3/1 33/3/1 32/3/1
f 35/3/1 33/3/1 34/3/1
f 38/1/1 37/1/1 36/1/1
f 39/1/1 37/1/1 38/1/1
f 42/3/1 41/3/1 40/3/1
f 43/3/1 41/3/1 42/3/1
f 46/1/1 45/1/1 44/1/1
f 47/1/1 45/1/1 46/1/1
f 50/1/1 49/1/1 48/1/1
f 51/1/1 49/1/1 50/1/1
f 54/1/1 53/1/1 52/1/1
f 55/1/1 53/1/1 54/1/1
f 58/3/1 57/3/1 56/3/1
f 59/3/1 57/3/1 58/3/1
f 62/3/1 61/3/1 60/3/1
f 63/3/1 61/3/1 62/3/1
f 66/3/1 65/3/1 64/3/1
f 67/3/1 65/3/1 66/3/1
f 70/3/1 69/3/1 68/3/1
f 71/3/1 69/3/1 70/3/1
f 72/3/2 73/3/2 74/3/2
f 74/3/2 73/3/2 75/3/2
f 76/3/2 77/3/2 78/3/2
f 78/3/2 77/3/2 79/3/2
f 80/3/2 81/3/2 82/3/2
f 82/3/2 81/3/2 83/3/2
f 84/3/2 85/3/2 86/3/2
f 86/3/2 85/3/2 87/3/2
f 88/1/2 89/1/2 90/1/2
f 90/1/2 89/1/2 91/1/2
f 92/1/2 93/1/2 94/1/2
f 94/1/2 93/1/2 95/1/2
f 96/3/2 97/3/2 98/3/2
f 98/3/2 97/3/2 99/3/2
f 100/1/2 101/1/2 102/1/2
f 102/1/2 101/1/2 103/1/2
f 104/3/2 105/3/2 106/3/2
f 106/3/2 105/3/2 107/3/2
f 108/1/2 109/1/2 110/1/2
f 110/1/2 109/1/2 111/1/2
f 112/3/2 113/3/2 114/3/2
f 114/3/2 113/3/2 115/3/2
f 116/1/2 117/1/2 118/1/2
f 118/1/2 117/1/2 119/1/2
f 120/3/2 121/3/2 122/3/2
f 122/3/2 121/3/2 123/3/2
f 122/1/2 123/1/2 125/1/2
f 123/1/2 124/1/2 125/1/2
f 125/1/2 124/1/2 126/1/2
f 127/1/2 128/1/2 129/1/2
f 129/1/2 128/1/2 130/1/2
f 131/1/2 132/1/2 133/1/2
f 133/1/2 132/1/2 134/1/2
f 135/1/2 136/1/2 137/1/2
f 137/1/2 136/1/2 138/1/2
f 139/1/2 140/1/2 141/1/2
f 141/1/2 140/1/2 142/1/2
f 145/1/3 144/1/3 143/1/3
f 146/1/3 144/1/3 145/1/3
f 149/1/3 148/1/3 147/1/3
f 150/1/3 148/1/3 149/1/3
f 153/1/3 152/1/3 151/1/3
f 154/1/3 152/1/3 153/1/3
f 157/1/3 156/1/3 155/1/3
f 158/1/3 156/1/3 157/1/3
f 161/1/3 160/1/3 159/1/3
f 162/1/3 160/1/3 161/1/3
f 165/1/3 164/1/3 163/1/3
f 166/1/3 164/1/3 165/1/3
f 169/1/3 168/1/3 167/1/3
f 170/1/3 168/1/3 169/1/3
f 173/1/3 172/1/3 171/1/3
f 174/1/3 172/1/3 173/1/3
f 177/1/3 176/1/3 175/1/3
f 178/1/3 176/1/3 177/1/3
f 183/3/3 180/3/3 179/3/3
f 184/1/3 181/1/3 180/1/3
f 184/3/3 180/3/3 183/3/3
f 185/1/3 181/1/3 184/1/3
f 187/3/3 183/3/3 182/3/3
f 188/3/3 183/3/3 187/3/3
f 190/3/3 187/3/3 186/3/3
f 191/3/3 187/3/3 190/3/3
f 192/3/3 190/3/3 189/3/3
f 193/3/3 190/3/3 192/3/3
f 196/3/3 195/3/3 194/3/3
f 197/3/3 195/3/3 196/3/3
f 199/3/3 198/3/3 197/3/3
f 200/3/3 198/3/3 199/3/3
f 202/3/3 201/3/3 200/3/3
f 203/3/3 201/3/3 202/3/3
f 206/3/3 204/3/3 203/3/3
f 207/1/3 205/1/3 204/1/3
f 207/3/3 204/3/3 206/3/3
f 208/1/3 205/1/3 207/1/3
f 211/1/3 210/1/3 209/1/3
f 212/1/3 210/1/3 211/1/3
f 215/1/3 214/1/3 213/1/3
f 216/1/3 214/1/3 215/1/3
f 219/1/3 218/1/3 217/1/3
f 220/1/3 218/1/3 219/1/3
f 223/1/3 222/1/3 221/1/3
f 224/1/3 222/1/3 223/1/3
f 227/1/3 226/1/3 225/1/3
f 228/1/3 226/1/3 227/1/3
f 231/1/3 230/1/3 229/1/3
f 232/1/3 230/1/3 231/1/3
f 235/1/3 234/1/3 233/1/3
f 236/1/3 234/1/3 235/1/3
f 239/1/3 238/1/3 237/1/3
f 240/1/3 238/1/3 239/1/3
f 241/3/4 242/3/4 244/3/4
f 244/3/4 242/3/4 245/3/4
f 243/3/4 244/3/4 247/3/4
f 247/3/4 244/3/4 248/3/4
f 246/3/4 247/3/4 250/3/4
f 250/3/4 247/3/4 251/3/4
f 249/3/4 250/3/4 252/3/4
f 252/3/4 250/3/4 253/3/4
f 254/3/4 255/3/4 256/3/4
f 256/3/4 255/3/4 257/3/4
f 257/3/4 258/3/4 259/3/4
f 259/3/4 258/3/4 260/3/4
f 260/3/4 261/3/4 262/3/4
f 262/3/4 261/3/4 263/3/4
f 263/3/4 264/3/4 265/3/4
f 265/3/4 264/3/4 266/3/4
f 267/1/4 268/1/4 269/1/4
f 269/1/4 268/1/4 270/1/4
f 275/3/5 272/3/5 271/3/5
f 276/3/5 272/3/5 275/3/5
f 277/3/5 274/3/5 273/3/5
f 278/3/5 274/3/5 277/3/5
f 283/3/5 280/3/5 279/3/5
f 284/3/5 280/3/5 283/3/5
f 285/3/5 282/3/5 281/3/5
f 286/3/5 282/3/5 285/3/5
f 291/3/5 288/3/5 287/3/5
f 292/3/5 288/3/5 291/3/5
f 293/3/5 290/3/5 289/3/5
f 294/3/5 290/3/5 293/3/5
f 299/3/5 296/3/5 295/3/5
f 300/3/5 296/3/5 299/3/5
f 301/3/5 298/3/5 297/3/5
f 302/3/5 298/3/5 301/3/5
f 306/1/5 304/1/5 303/1/5
f 307/1/5 304/1/5 306/1/5
f 309/1/5 306/1/5 305/1/5
f 309/1/5 308/1/5 307/1/5
f 309/1/5 307/1/5 306/1/5
f 310/1/5 308/1/5 309/1/5
f 312/1/5 309/1/5 305/1/5
f 313/1/5 308/1/5 310/1/5
f 315/1/5 312/1/5 311/1/5
f 315/1/5 309/1/5 312/1/5
f 316/2/5 310/2/5 309/2/5
f 316/1/5 309/1/5 315/1/5
f 317/1/5 314/1/5 313/1/5
f 317/2/5 310/2/5 316/2/5
f 317/1/5 313/1/5 310/1/5
f 318/1/5 314/1/5 317/1/5
f 320/1/5 315/1/5 311/1/5
f 321/1/5 314/1/5 318/1/5
f 324/1/5 320/1/5 319/1/5
f 325/1/5 315/1/5 320/1/5
f 325/1/5 320/1/5 324/1/5
f 326/2/5 316/2/5 315/2/5
f 326/1/5 315/1/5 325/1/5
f 326/2/5 317/2/5 316/2/5
f 326/2/5 318/2/5 317/2/5
f 327/1/5 322/1/5 321/1/5
f 327/2/5 318/2/5 326/2/5
f 327/1/5 321/1/5 318/1/5
f 328/1/5 322/1/5 327/1/5
f 329/1/5 322/1/5 328/1/5
f 331/1/5 325/1/5 324/1/5
f 331/1/5 324/1/5 323/1/5
f 332/2/5 326/2/5 325/2/5
f 332/1/5 325/1/5 331/1/5
f 332/2/5 327/2/5 326/2/5
f 332/2/5 328/2/5 327/2/5
f 333/1/5 330/1/5 329/1/5
f 333/2/5 328/2/5 332/2/5
f 333/1/5 329/1/5 328/1/5
f 334/1/5 330/1/5 333/1/5
f 335/1/5 331/1/5 323/1/5
f 336/1/5 330/1/5 334/1/5
f 338/1/5 331/1/5 335/1/5
f 339/2/5 332/2/5 331/2/5
f 339/2/5 333/2/5 332/2/5
f 339/1/5 331/1/5 338/1/5
f 339/2/5 334/2/5 333/2/5
f 340/1/5 336/1/5 334/1/5
f 340/2/5 334/2/5 339/2/5
f 341/1/5 336/1/5 340/1/5
f 344/1/5 338/1/5 337/1/5
f 345/1/5 342/1/5 341/1/5
f 347/1/5 344/1/5 343/1/5
f 347/1/5 338/1/5 344/1/5
f 348/2/5 341/2/5 340/2/5
f 348/1/5 338/1/5 347/1/5
f 348/2/5 339/2/5 338/2/5
f 348/2/5 340/2/5 339/2/5
f 349/1/5 346/1/5 345/1/5
f 349/2/5 341/2/5 348/2/5
f 349/1/5 345/1/5 341/1/5
f 350/1/5 346/1/5 349/1/5
f 352/1/5 347/1/5 343/1/5
f 353/1/5 346/1/5 350/1/5
f 355/1/5 352/1/5 351/1/5
f 355/1/5 347/1/5 352/1/5
f 356/2/5 348/2/5 347/2/5
f 356/1/5 347/1/5 355/1/5
f 356/2/5 349/2/5 348/2/5
f 356/2/5 350/2/5 349/2/5
f 357/1/5 354/1/5 353/1/5
f 357/2/5 350/2/5 356/2/5
f 357/1/5 353/1/5 350/1/5
f 358/1/5 354/1/5 357/1/5
f 360/1/5 355/1/5 351/1/5
f 361/1/5 354/1/5 358/1/5
f 363/1/5 360/1/5 359/1/5
f 363/1/5 355/1/5 360/1/5
f 364/2/5 356/2/5 355/2/5
f 364/1/5 355/1/5 363/1/5
f 364/2/5 357/2/5 356/2/5
f 364/2/5 358/2/5 357/2/5
f 365/1/5 362/1/5 361/1/5
f 365/2/5 358/2/5 364/2/5
f 365/1/5 361/1/5 358/1/5
f 366/1/5 362/1/5 365/1/5
f 368/1/5 363/1/5 359/1/5
f 369/2/5 364/2/5 363/2/5
f 369/2/5 365/2/5 364/2/5
f 369/1/5 363/1/5 368/1/5
f 369/2/5 366/2/5 365/2/5
f 370/1/5 362/1/5 366/1/5
f 370/2/5 366/2/5 369/2/5
f 371/1/5 362/1/5 370/1/5
f 373/1/5 368/1/5 367/1/5
f 373/1/5 372/1/5 371/1/5
f 373/1/5 371/1/5 370/1/5
f 373/1/5 370/1/5 369/1/5
f 373/1/5 369/1/5 368/1/5
f 374/1/5 372/1/5 373/1/5
f 375/3/6 376/3/6 379/3/6
f 379/3/6 376/3/6 380/3/6
f 377/3/6 378/3/6 381/3/6
f 381/3/6 378/3/6 382/3/6
f 383/3/6 384/3/6 387/3/6
f 387/3/6 384/3/6 388/3/6
f 385/3/6 386/3/6 389/3/6
f 389/3/6 386/3/6 390/3/6
f 391/3/6 392/3/6 395/3/6
f 395/3/6 392/3/6 396/3/6
f 393/3/6 394/3/6 397/3/6
f 397/3/6 394/3/6 398/3/6
f 399/1/6 400/1/6 402/1/6
f 402/1/6 400/1/6 403/1/6
f 401/1/6 402/1/6 405/1/6
f 403/1/6 404/1/6 405/1/6
f 402/1/6 403/1/6 405/1/6
f 405/1/6 404/1/6 406/1/6
f 401/1/6 405/1/6 408/1/6
f 406/1/6 404/1/6 409/1/6
f 407/1/6 408/1/6 411/1/6
f 408/1/6 405/1/6 411/1/6
f 405/2/6 406/2/6 412/2/6
f 411/1/6 405/1/6 412/1/6
f 409/1/6 410/1/6 413/1/6
f 412/2/6 406/2/6 413/2/6
f 406/1/6 409/1/6 413/1/6
f 413/1/6 410/1/6 414/1/6
f 407/1/6 411/1/6 416/1/6
f 414/1/6 410/1/6 417/1/6
f 415/1/6 416/1/6 420/1/6
f 416/1/6 411/1/6 421/1/6
f 420/1/6 416/1/6 421/1/6
f 411/2/6 412/2/6 422/2/6
f 421/1/6 411/1/6 422/1/6
f 412/2/6 413/2/6 422/2/6
f 413/2/6 414/2/6 422/2/6
f 417/1/6 418/1/6 423/1/6
f 422/2/6 414/2/6 423/2/6
f 414/1/6 417/1/6 423/1/6
f 423/1/6 418/1/6 424/1/6
f 424/1/6 418/1/6 425/1/6
f 420/1/6 421/1/6 427/1/6
f 419/1/6 420/1/6 427/1/6
f 421/2/6 422/2/6 428/2/6
f 427/1/6 421/1/6 428/1/6
f 422/2/6 423/2/6 428/2/6
f 423/2/6 424/2/6 428/2/6
f 425/1/6 426/1/6 429/1/6
f 428/2/6 424/2/6 429/2/6
f 424/1/6 425/1/6 429/1/6
f 429/1/6 426/1/6 430/1/6
f 419/1/6 427/1/6 432/1/6
f 430/1/6 426/1/6 433/1/6
f 431/1/6 432/1/6 435/1/6
f 432/1/6 427/1/6 435/1/6
f 427/2/6 428/2/6 436/2/6
f 435/1/6 427/1/6 436/1/6
f 428/2/6 429/2/6 436/2/6
f 429/2/6 430/2/6 436/2/6
f 433/1/6 434/1/6 437/1/6
f 436/2/6 430/2/6 437/2/6
f 430/1/6 433/1/6 437/1/6
f 437/1/6 434/1/6 438/1/6
f 431/1/6 435/1/6 440/1/6
f 438/1/6 434/1/6 441/1/6
f 439/1/6 440/1/6 443/1/6
f 440/1/6 435/1/6 443/1/6
f 435/2/6 436/2/6 444/2/6
f 443/1/6 435/1/6 444/1/6
f 436/2/6 437/2/6 444/2/6
f 437/2/6 438/2/6 444/2/6
f 441/1/6 442/1/6 445/1/6
f 444/2/6 438/2/6 445/2/6
f 438/1/6 441/1/6 445/1/6
f 445/1/6 442/1/6 446/1/6
f 439/1/6 443/1/6 448/1/6
f 446/1/6 442/1/6 449/1/6
f 447/1/6 448/1/6 451/1/6
f 448/1/6 443/1/6 451/1/6
f 443/2/6 444/2/6 452/2/6
f 451/1/6 443/1/6 452/1/6
f 444/2/6 445/2/6 452/2/6
f 445/2/6 446/2/6 452/2/6
f 449/1/6 450/1/6 453/1/6
f 452/2/6 446/2/6 453/2/6
f 446/1/6 449/1/6 453/1/6
f 453/1/6 450/1/6 454/1/6
f 447/1/6 451/1/6 456/1/6
f 454/1/6 450/1/6 457/1/6
f 455/1/6 456/1/6 459/1/6
f 456/1/6 451/1/6 459/1/6
f 451/2/6 452/2/6 460/2/6
f 459/1/6 451/1/6 460/1/6
f 452/2/6 453/2/6 460/2/6
f 453/2/6 454/2/6 460/2/6
f 457/1/6 458/1/6 461/1/6
f 460/2/6 454/2/6 461/2/6
f 454/1/6 457/1/6 461/1/6
f 461/1/6 458/1/6 462/1/6
f 455/1/6 459/1/6 464/1/6
f 459/2/6 460/2/6 465/2/6
f 460/2/6 461/2/6 465/2/6
f 464/1/6 459/1/6 465/1/6
f 461/2/6 462/2/6 465/2/6
f 462/1/6 458/1/6 466/1/6
f 465/2/6 462/2/6 466/2/6
f 466/1/6 458/1/6 467/1/6
f 463/1/6 464/1/6 469/1/6
f 467/1/6 468/1/6 469/1/6
f 466/1/6 467/1/6 469/1/6
f 465/1/6 466/1/6 469/1/6
f 464/1/6 465/1/6 469/1/6
f 469/1/6 468/1/6 470/1/6
